<?xml version="1.0" encoding="UTF-8"?>
<svg id="_Слой_2" data-name="Слой 2" xmlns="http://www.w3.org/2000/svg" viewBox="0 0 662.87 137.14">
  <defs>
    <style>
      .cls-1 {
        fill: #f8b600;
      }

      .cls-2 {
        fill: #f9f9f9;
      }

      .cls-3 {
        fill: none;
      }

      .cls-4 {
        fill: #d6003e;
      }

      .cls-5 {
        fill: #0073c4;
      }
    </style>
  </defs>
  <g id="_Слой_1-2" data-name="Слой 1">
    <g>
      <path class="cls-3" d="m327.41,75.84c.94-1.98,1.41-4.23,1.41-6.78-.1-4.23-1.34-7.24-3.74-9.04-2.4-1.79-6.52-2.68-12.36-2.68-4.8,0-8.57.71-11.29,2.12-2.73,1.41-4.64,3.86-5.72,7.34-.93,2.97-1.45,6.98-1.59,12h27.21c3.11,0,5.13-.99,6.07-2.96Z"/>
      <path class="cls-3" d="m481.8,59.74c-2.78-1.51-6.52-2.26-11.23-2.26s-8.43.75-11.16,2.26c-2.73,1.51-4.66,4.07-5.79,7.7-1.13,3.62-1.69,8.68-1.69,15.17s.56,11.58,1.69,15.25c1.13,3.67,3.06,6.23,5.79,7.69s6.45,2.19,11.16,2.19,8.45-.73,11.23-2.19c2.77-1.46,4.73-4.02,5.85-7.69,1.13-3.67,1.69-8.76,1.69-15.25s-.56-11.55-1.69-15.17c-1.13-3.63-3.08-6.19-5.85-7.7Z"/>
      <path class="cls-3" d="m402.59,60.24c-2.31-1.55-5.58-2.33-9.81-2.33-3.58,0-6.99.97-10.24,2.89-2.87,1.71-6.09,3.91-9.66,6.61l.1,38.16c1.5.4,2.99.76,4.47,1.05,2.4.48,4.8.78,7.2.92,2.4.14,4.64.21,6.71.21,4.23-.19,7.6-1.03,10.09-2.54,2.49-1.51,4.33-4.12,5.5-7.84,1.18-3.72,1.77-8.73,1.77-15.04s-.45-10.94-1.34-14.47c-.9-3.53-2.49-6.07-4.8-7.62Z"/>
      <path class="cls-3" d="m562.56,59.74c-2.78-1.51-6.52-2.26-11.23-2.26s-8.43.75-11.16,2.26c-2.73,1.51-4.66,4.07-5.79,7.7-1.13,3.62-1.69,8.68-1.69,15.17s.56,11.58,1.69,15.25c1.13,3.67,3.06,6.23,5.79,7.69s6.45,2.19,11.16,2.19,8.45-.73,11.23-2.19c2.77-1.46,4.73-4.02,5.85-7.69,1.13-3.67,1.69-8.76,1.69-15.25s-.56-11.55-1.69-15.17c-1.13-3.63-3.08-6.19-5.85-7.7Z"/>
      <path class="cls-2" d="m198.36,105.35c-3.11,0-5.42-.73-6.92-2.19-1.51-1.46-2.26-3.69-2.26-6.7V19.65h-13.98v78.93c0,5.36,1.56,9.81,4.66,13.34,3.11,3.53,8.24,5.3,15.39,5.3,6.5,0,12.99-.05,19.49-.14,6.49-.09,12.89-.37,19.2-.84l-.71-10.88h-34.87Z"/>
      <rect class="cls-2" x="247.92" y="48.17" width="13.41" height="68.9"/>
      <path class="cls-2" d="m257.8,18.66h-6.35c-2.73,0-4.1,1.36-4.1,4.09v8.05c0,2.73,1.37,4.1,4.1,4.1h6.35c2.73,0,4.1-1.37,4.1-4.1v-8.05c0-2.73-1.37-4.09-4.1-4.09Z"/>
      <path class="cls-2" d="m338.35,83.47c2.77-3.39,4.11-8.19,4.02-14.4,0-7.43-2.38-13.06-7.13-16.87-4.75-3.81-12.45-5.72-23.08-5.72-7.53,0-13.7,1.11-18.5,3.32-4.8,2.21-8.33,5.95-10.59,11.22-2.26,5.27-3.39,12.43-3.39,21.46s1.13,15.65,3.39,20.96c2.26,5.32,5.84,9.2,10.73,11.65,4.89,2.45,11.39,3.67,19.48,3.67,2.83,0,5.93-.14,9.32-.43,3.39-.28,6.69-.73,9.89-1.34,3.2-.61,5.93-1.39,8.19-2.33l-1.41-8.89c-3.67.47-7.74.87-12.21,1.2-4.48.33-8.5.49-12.08.49-5.08,0-9.15-.71-12.21-2.12-3.06-1.41-5.27-3.98-6.64-7.69-.86-2.36-1.45-5.4-1.77-9.11h30.51c6.21,0,10.7-1.69,13.48-5.08Zm-44.23-4.66c.14-5.03.66-9.03,1.59-12,1.08-3.48,2.99-5.93,5.72-7.34,2.73-1.41,6.5-2.12,11.29-2.12,5.84,0,9.96.9,12.36,2.68,2.4,1.79,3.64,4.8,3.74,9.04,0,2.55-.47,4.8-1.41,6.78s-2.96,2.96-6.07,2.96h-27.21Z"/>
      <path class="cls-2" d="m397.86,46.47c-3.29,0-6.54.52-9.74,1.55-3.21,1.04-6.26,2.57-9.18,4.59-2.54,1.76-4.99,3.88-7.39,6.31.6-2.41,1-4.84,1.18-7.3.18-2.59.28-5.34.28-8.26v-25.13h-13.7v95.44c2.26.94,4.75,1.72,7.49,2.33,2.73.61,5.55,1.13,8.47,1.55,2.92.43,5.79.73,8.61.92,2.83.18,5.41.28,7.77.28,6.12,0,11.17-.8,15.18-2.4,4-1.6,7.18-3.95,9.53-7.06,2.35-3.1,4.02-6.92,5.01-11.43.99-4.52,1.48-9.7,1.48-15.53,0-12.89-2.02-22.1-6.07-27.6-4.04-5.51-10.35-8.26-18.92-8.26Zm9.11,50.9c-1.18,3.72-3.01,6.33-5.5,7.84-2.49,1.51-5.86,2.35-10.09,2.54-2.07,0-4.31-.07-6.71-.21-2.4-.14-4.8-.44-7.2-.92-1.48-.29-2.97-.65-4.47-1.05l-.1-38.16c3.57-2.7,6.79-4.9,9.66-6.61,3.25-1.92,6.66-2.89,10.24-2.89,4.23,0,7.5.78,9.81,2.33,2.3,1.55,3.9,4.1,4.8,7.62.9,3.53,1.34,8.35,1.34,14.47s-.59,11.32-1.77,15.04Z"/>
      <path class="cls-2" d="m489.99,50c-4.85-2.35-11.32-3.53-19.41-3.53s-14.43,1.18-19.27,3.53c-4.85,2.36-8.35,6.19-10.52,11.51-2.17,5.32-3.25,12.36-3.25,21.11s1.08,15.94,3.25,21.25c2.17,5.32,5.67,9.16,10.52,11.51,4.85,2.35,11.27,3.53,19.27,3.53s14.56-1.18,19.41-3.53c4.85-2.35,8.33-6.19,10.45-11.51,2.11-5.31,3.18-12.4,3.18-21.25s-1.06-15.79-3.18-21.11c-2.12-5.31-5.6-9.15-10.45-11.51Zm-2.33,47.87c-1.13,3.67-3.08,6.23-5.85,7.69-2.78,1.46-6.52,2.19-11.23,2.19s-8.43-.73-11.16-2.19-4.66-4.02-5.79-7.69c-1.13-3.67-1.69-8.76-1.69-15.25s.56-11.55,1.69-15.17c1.13-3.63,3.06-6.19,5.79-7.7,2.73-1.51,6.45-2.26,11.16-2.26s8.45.75,11.23,2.26c2.77,1.51,4.73,4.07,5.85,7.7,1.13,3.62,1.69,8.68,1.69,15.17s-.56,11.58-1.69,15.25Z"/>
      <path class="cls-2" d="m570.75,50c-4.85-2.35-11.32-3.53-19.41-3.53s-14.43,1.18-19.28,3.53c-4.85,2.36-8.35,6.19-10.52,11.51-2.17,5.32-3.25,12.36-3.25,21.11s1.08,15.94,3.25,21.25c2.17,5.32,5.67,9.16,10.52,11.51,4.85,2.35,11.27,3.53,19.28,3.53s14.56-1.18,19.41-3.53c4.85-2.35,8.33-6.19,10.45-11.51,2.11-5.31,3.18-12.4,3.18-21.25s-1.06-15.79-3.18-21.11c-2.12-5.31-5.6-9.15-10.45-11.51Zm-2.33,47.87c-1.13,3.67-3.08,6.23-5.85,7.69-2.78,1.46-6.52,2.19-11.23,2.19s-8.43-.73-11.16-2.19-4.66-4.02-5.79-7.69c-1.13-3.67-1.69-8.76-1.69-15.25s.56-11.55,1.69-15.17c1.13-3.63,3.06-6.19,5.79-7.7,2.73-1.51,6.45-2.26,11.16-2.26s8.45.75,11.23,2.26c2.77,1.51,4.73,4.07,5.85,7.7,1.13,3.62,1.69,8.68,1.69,15.17s-.56,11.58-1.69,15.25Z"/>
      <path class="cls-2" d="m647.06,117.07h15.81l-23.3-32.62c-.66-1.13-1.51-2.28-2.54-3.46-1.04-1.18-1.88-2-2.54-2.47v-.28c.65-.47,1.5-1.2,2.54-2.19,1.03-.99,1.88-1.95,2.54-2.9l21.04-24.99h-15.81l-20.8,25.27h-8.77c.17-1.17.31-2.33.41-3.46.23-2.59.35-5.39.35-8.4l-.14-43.35h-13.55v98.83h13.55v-23.15c0-2.45-.09-5.04-.28-7.77-.07-1.04-.18-2.08-.31-3.11h8.87l22.93,34.03Z"/>
      <path class="cls-4" d="m127.54,0H18.62C8.34,0,0,8.34,0,18.62s8.34,18.62,18.62,18.62h108.93c1.82,0,3.3-1.48,3.3-3.3V3.3c0-1.82-1.48-3.3-3.3-3.3Z"/>
      <path class="cls-1" d="m112.23,49.95H3.3c-1.82,0-3.3,1.48-3.3,3.3v30.63c0,1.82,1.48,3.3,3.3,3.3h108.93c10.28,0,18.62-8.34,18.62-18.62s-8.34-18.62-18.62-18.62Z"/>
      <path class="cls-5" d="m127.54,99.9H18.62c-10.28,0-18.62,8.34-18.62,18.62s8.34,18.62,18.62,18.62h108.93c1.82,0,3.3-1.48,3.3-3.3v-30.63c0-1.82-1.48-3.3-3.3-3.3Z"/>
    </g>
  </g>
</svg>